<svg width="698" height="148" viewBox="0 0 698 148" fill="none" xmlns="http://www.w3.org/2000/svg">
<path d="M74.2404 2.00008C93.3225 2.05043 111.603 9.68441 125.061 23.2226C138.518 36.7608 146.05 55.0942 146 74.1898C145.949 93.2853 138.321 111.579 124.792 125.046C111.264 138.513 92.943 146.05 73.8609 146C33.5465 146 1.83112 113.874 2.00068 73.2162C2.09757 33.649 34.2651 1.94352 74.2404 2.00008ZM73.6914 138.494C90.6747 138.428 106.946 131.657 118.966 119.651C130.987 107.645 137.786 91.3753 137.883 74.3802C137.981 57.385 131.371 41.0383 119.489 28.8944C107.608 16.7506 91.4157 9.79156 74.4342 9.53053C38.2296 9.37701 9.437 37.6324 9.31589 73.4262C9.21093 109.818 37.4544 138.372 73.6914 138.494Z" fill="#086FA8" stroke="#086FA8" stroke-width="3"/>
<path d="M75 86.9701C75 87.9715 74.0015 88.6692 72.9868 89.3669C62.1157 96.853 51.242 104.334 40.3655 111.809C39.2945 112.548 38.1591 113.697 36.7901 112.441C35.4212 111.185 36.0734 109.691 36.927 108.411C44.3462 97.2142 51.7708 86.0261 59.2007 74.8462C59.9093 73.7709 60.6582 72.8105 62.0755 73.0321C63.4927 73.2537 63.9276 74.5425 64.1128 75.7491C64.8536 80.7645 67.9056 83.3666 72.56 84.3187C73.8485 84.565 74.9034 84.9672 75 86.9701Z" fill="#086FA8"/>
<path d="M114 37.1262C113.558 37.9296 113.181 38.773 112.657 39.5362C105.272 50.2845 97.8765 61.0249 90.4697 71.7572C89.7083 72.8657 89.0042 74.1671 87.3667 73.9823C85.7292 73.7976 85.4754 72.3034 85.1807 71.002C84.1736 66.6641 81.5537 63.9409 77.0425 63.0332C75.7489 62.7681 74.1933 62.6476 74.0132 60.8803C73.8658 59.4423 74.9793 58.7595 76.0027 58.0847C87.1702 50.6782 98.3704 43.3037 109.522 35.857C111.626 34.4833 112.96 34.6601 114 37.1262Z" fill="#086FA8"/>
<circle cx="75" cy="74" r="7" fill="#17CF95"/>
<line x1="177" y1="3" x2="177" y2="143" stroke="#006BA6" stroke-width="2"/>
<path d="M219.746 17.2734H218.746V18.2734V94V95H219.746H258.4H259.4V94V87.0391V86.0391H258.4H227.707V60.5117H251.756H252.756V59.5117V52.5508V51.5508H251.756H227.707V26.2344H258.4H259.4V25.2344V18.2734V17.2734H258.4H219.746ZM311.867 17.2734H311.295L311.005 17.7655L293.147 48.0488L275.34 17.7665L275.05 17.2734H274.478H266.41H264.659L265.548 18.7813L287.978 56.8227L266.392 93.4927L265.504 95H267.253H275.322H275.894L276.184 94.5068L293.147 65.6489L310.162 94.5079L310.452 95H311.023H319.091H320.84L319.953 93.4927L298.367 56.8221L320.744 18.7805L321.631 17.2734H319.882H311.867ZM338.333 95H339.333V94V60.8281H358.636C364.597 60.8281 369.736 58.7007 374 54.4739L374.006 54.4677C378.233 50.204 380.36 45.065 380.36 39.1035C380.36 33.0752 378.235 27.9158 374.003 23.6835C369.74 19.4205 364.6 17.2734 358.636 17.2734H331.372H330.372V18.2734V94V95H331.372H338.333ZM413.842 17.2734H413.292L412.997 17.739L365.114 93.4656L364.144 95H365.96H374.186H374.737L375.031 94.5344L386.708 76.0684H415.215V94V95H416.215H423.124H424.124V94V18.2734V17.2734H423.124H413.842ZM484.236 17.2734H483.236V18.2734V77.7723L447.39 17.7606L447.099 17.2734H446.531H438.99H437.99V18.2734V94V95H438.99H445.951H446.951V94V34.4968L482.851 94.5133L483.142 95H483.709H491.197H492.197V94V18.2734V17.2734H491.197H484.236ZM505.906 94V95H506.906H525.521C536.229 95 545.413 91.1847 553.017 83.5802C560.588 76.0098 564.384 66.8433 564.384 56.1367C564.384 45.4301 560.588 36.2636 553.017 28.6933C545.413 21.0888 536.229 17.2734 525.521 17.2734H506.906H505.906V18.2734V94ZM572.556 94V95H573.556H580.569H581.569V94V17.9043V16.9043H580.569H573.556H572.556V17.9043V94ZM594.274 17.2734H593.274V18.2734V94V95H594.274H601.235H602.235V94V60.5117H626.284H627.284V59.5117V52.5508V51.5508H626.284H602.235V26.2344H632.928H633.928V25.2344V18.2734V17.2734H632.928H594.274ZM686.447 17.2734H685.876L685.586 17.7655L667.728 48.0488L649.921 17.7665L649.631 17.2734H649.059H640.99H639.241L640.129 18.7808L663.246 58.044V94V95H664.246H671.207H672.207V94V58.044L695.325 18.7808L696.212 17.2734H694.463H686.447ZM358.636 51.8672H339.333V26.2344H358.636C362.164 26.2344 365.161 27.48 367.682 29.9996C370.166 32.5175 371.399 35.5333 371.399 39.1035C371.399 42.6366 370.168 45.6162 367.685 48.0995C365.163 50.6208 362.165 51.8672 358.636 51.8672ZM415.215 67.1074H392.351L415.215 31.0028V67.1074ZM525.521 86.0918H514.814V26.1816H525.521C533.799 26.1816 540.839 29.0995 546.699 34.9591C552.558 40.8186 555.476 47.8593 555.476 56.1367C555.476 64.4142 552.558 71.4548 546.699 77.3144C540.839 83.1739 533.799 86.0918 525.521 86.0918Z" fill="#006BA6" stroke="#006BA6" stroke-width="2"/>
<mask id="path-7-outside-1_41_386" maskUnits="userSpaceOnUse" x="217.264" y="106.761" width="458" height="24" fill="black">
<rect fill="white" x="217.264" y="106.761" width="458" height="24"/>
<path d="M228.986 129.205C226.027 129.205 223.503 128.155 221.413 126.056C219.313 123.966 218.264 121.441 218.264 118.482C218.264 115.533 219.313 113.009 221.413 110.909C223.503 108.819 226.027 107.774 228.986 107.774C230.441 107.774 231.833 108.053 233.161 108.609L232.399 110.397C231.315 109.938 230.178 109.708 228.986 109.708C226.564 109.708 224.494 110.563 222.775 112.272C221.057 113.99 220.197 116.061 220.197 118.482C220.197 120.904 221.057 122.975 222.775 124.693C224.494 126.412 226.564 127.272 228.986 127.272C229.963 127.272 230.91 127.115 231.828 126.803V119.391H227.448V117.457H233.762V128.106L233.176 128.355C231.838 128.922 230.441 129.205 228.986 129.205Z"/>
<path d="M248.268 117.56H253.893C254.947 117.56 255.851 117.189 256.603 116.446C257.345 115.694 257.716 114.791 257.716 113.736C257.716 112.682 257.345 111.778 256.603 111.026C255.851 110.274 254.947 109.898 253.893 109.898H248.268V117.56ZM255.387 119.303L260.411 129H258.243L253.307 119.493H248.268V128.985H246.334V107.965H253.893C255.485 107.965 256.842 108.531 257.965 109.664C259.088 110.787 259.65 112.145 259.65 113.736C259.65 115.055 259.244 116.236 258.434 117.281C257.643 118.297 256.627 118.971 255.387 119.303Z"/>
<path d="M282.271 109.708C279.849 109.708 277.779 110.567 276.06 112.286C274.341 114.005 273.482 116.075 273.482 118.497C273.482 120.919 274.341 122.989 276.06 124.708C277.779 126.427 279.849 127.286 282.271 127.286C284.693 127.286 286.763 126.427 288.482 124.708C290.201 122.989 291.06 120.919 291.06 118.497C291.06 116.075 290.201 114.005 288.482 112.286C286.763 110.567 284.693 109.708 282.271 109.708ZM282.271 129.22C279.312 129.22 276.787 128.17 274.698 126.07C272.598 123.98 271.548 121.456 271.548 118.497C271.548 115.538 272.598 113.009 274.698 110.909C276.787 108.819 279.312 107.774 282.271 107.774C285.23 107.774 287.759 108.819 289.859 110.909C291.949 113.009 292.994 115.538 292.994 118.497C292.994 121.456 291.949 123.98 289.859 126.07C287.759 128.17 285.23 129.22 282.271 129.22Z"/>
<path d="M332.504 107.965H334.79L321.489 129H318.911V111.583L307.895 129H305.317V107.965H307.251V126.422L318.911 107.965H320.844V126.422L332.504 107.965Z"/>
<path d="M375.872 107.965H378.099L371.639 118.937V129H369.705V118.937L363.245 107.965H365.486L370.672 116.783L375.872 107.965Z"/>
<path d="M398.127 109.708C395.705 109.708 393.635 110.567 391.916 112.286C390.197 114.005 389.338 116.075 389.338 118.497C389.338 120.919 390.197 122.989 391.916 124.708C393.635 126.427 395.705 127.286 398.127 127.286C400.549 127.286 402.619 126.427 404.338 124.708C406.057 122.989 406.916 120.919 406.916 118.497C406.916 116.075 406.057 114.005 404.338 112.286C402.619 110.567 400.549 109.708 398.127 109.708ZM398.127 129.22C395.168 129.22 392.644 128.17 390.554 126.07C388.454 123.98 387.404 121.456 387.404 118.497C387.404 115.538 388.454 113.009 390.554 110.909C392.644 108.819 395.168 107.774 398.127 107.774C401.086 107.774 403.615 108.819 405.715 110.909C407.805 113.009 408.85 115.538 408.85 118.497C408.85 121.456 407.805 123.98 405.715 126.07C403.615 128.17 401.086 129.22 398.127 129.22Z"/>
<path d="M428.585 129.234C426.583 129.234 424.874 128.526 423.458 127.11C422.042 125.694 421.334 123.985 421.334 121.983V108.009H423.268V121.983C423.268 123.448 423.786 124.703 424.821 125.748C425.866 126.793 427.121 127.315 428.585 127.315C430.05 127.315 431.305 126.793 432.35 125.748C433.385 124.703 433.903 123.448 433.903 121.983V108.009H435.836V121.983C435.836 123.985 435.128 125.694 433.712 127.11C432.296 128.526 430.587 129.234 428.585 129.234Z"/>
<path d="M450.928 117.56H456.553C457.608 117.56 458.511 117.189 459.263 116.446C460.005 115.694 460.377 114.791 460.377 113.736C460.377 112.682 460.005 111.778 459.263 111.026C458.511 110.274 457.608 109.898 456.553 109.898H450.928V117.56ZM458.047 119.303L463.072 129H460.904L455.967 119.493H450.928V128.985H448.995V107.965H456.553C458.145 107.965 459.503 108.531 460.626 109.664C461.749 110.787 462.31 112.145 462.31 113.736C462.31 115.055 461.905 116.236 461.094 117.281C460.303 118.297 459.288 118.971 458.047 119.303Z"/>
<path d="M494.706 117.472H499.101C500.136 117.472 501.024 117.101 501.767 116.358C502.509 115.616 502.88 114.723 502.88 113.678C502.88 112.633 502.509 111.744 501.767 111.012C501.024 110.27 500.136 109.898 499.101 109.898H494.706V117.472ZM494.706 127.066H500.346C501.4 127.066 502.304 126.69 503.056 125.939C503.798 125.187 504.169 124.278 504.169 123.214C504.169 122.169 503.798 121.271 503.056 120.519C502.304 119.776 501.4 119.405 500.346 119.405H494.706V127.066ZM492.772 129V107.965H499.101C500.673 107.965 502.016 108.522 503.129 109.635C504.252 110.758 504.813 112.105 504.813 113.678C504.813 115.426 504.145 116.876 502.807 118.028C503.803 118.497 504.599 119.19 505.194 120.108C505.8 121.056 506.103 122.091 506.103 123.214C506.103 124.815 505.541 126.178 504.418 127.301C503.285 128.434 501.928 129 500.346 129H492.772Z"/>
<path d="M525.867 129.234C523.865 129.234 522.156 128.526 520.74 127.11C519.324 125.694 518.616 123.985 518.616 121.983V108.009H520.55V121.983C520.55 123.448 521.068 124.703 522.103 125.748C523.148 126.793 524.403 127.315 525.867 127.315C527.332 127.315 528.587 126.793 529.632 125.748C530.667 124.703 531.185 123.448 531.185 121.983V108.009H533.118V121.983C533.118 123.985 532.41 125.694 530.994 127.11C529.578 128.526 527.869 129.234 525.867 129.234Z"/>
<path d="M551.946 129.205C551.819 129.205 551.692 129.2 551.565 129.19C550.207 129.132 548.962 128.775 547.829 128.121C546.54 127.379 545.666 126.388 545.207 125.147L547.024 124.488C547.336 125.328 547.971 126.007 548.928 126.524C549.768 126.974 550.676 127.223 551.653 127.272C553.147 127.33 554.397 126.954 555.403 126.144C556.301 125.421 556.775 124.571 556.824 123.595C556.902 121.759 555.222 120.357 551.785 119.391C549.304 118.697 547.532 117.73 546.467 116.49C545.657 115.543 545.276 114.479 545.325 113.297C545.413 111.295 546.262 109.801 547.873 108.814C549.153 108.033 550.701 107.687 552.517 107.774C554.704 107.872 556.453 108.624 557.761 110.03L556.34 111.349C555.393 110.323 554.089 109.772 552.429 109.693C551.003 109.635 549.822 109.889 548.884 110.455C547.859 111.09 547.317 112.066 547.258 113.385C547.18 115.182 548.86 116.564 552.297 117.53C554.778 118.224 556.55 119.195 557.615 120.445C558.425 121.402 558.806 122.477 558.757 123.668C558.679 125.24 557.966 126.568 556.619 127.652C555.329 128.688 553.772 129.205 551.946 129.205Z"/>
<path d="M570.597 129V107.862H572.546V129H570.597Z"/>
<path d="M597.921 107.965H599.854V129H597.774L587.286 111.466V129H585.352V107.965H587.447L597.921 125.499V107.965Z"/>
<path d="M613.262 107.965H623.999V109.898H615.195V117.486H622.153V119.42H615.195V127.066H623.999V129H613.262V107.965Z"/>
<path d="M642.226 129.205C642.099 129.205 641.972 129.2 641.845 129.19C640.487 129.132 639.242 128.775 638.11 128.121C636.82 127.379 635.946 126.388 635.487 125.147L637.304 124.488C637.616 125.328 638.251 126.007 639.208 126.524C640.048 126.974 640.956 127.223 641.933 127.272C643.427 127.33 644.677 126.954 645.683 126.144C646.581 125.421 647.055 124.571 647.104 123.595C647.182 121.759 645.502 120.357 642.065 119.391C639.584 118.697 637.812 117.73 636.747 116.49C635.937 115.543 635.556 114.479 635.605 113.297C635.693 111.295 636.542 109.801 638.154 108.814C639.433 108.033 640.981 107.687 642.797 107.774C644.985 107.872 646.733 108.624 648.041 110.03L646.62 111.349C645.673 110.323 644.369 109.772 642.709 109.693C641.283 109.635 640.102 109.889 639.164 110.455C638.139 111.09 637.597 112.066 637.538 113.385C637.46 115.182 639.14 116.564 642.577 117.53C645.058 118.224 646.83 119.195 647.895 120.445C648.705 121.402 649.086 122.477 649.037 123.668C648.959 125.24 648.246 126.568 646.899 127.652C645.61 128.688 644.052 129.205 642.226 129.205Z"/>
<path d="M667.323 129.205C667.196 129.205 667.069 129.2 666.942 129.19C665.584 129.132 664.339 128.775 663.206 128.121C661.917 127.379 661.043 126.388 660.584 125.147L662.401 124.488C662.713 125.328 663.348 126.007 664.305 126.524C665.145 126.974 666.053 127.223 667.03 127.272C668.524 127.33 669.774 126.954 670.78 126.144C671.678 125.421 672.152 124.571 672.201 123.595C672.279 121.759 670.599 120.357 667.162 119.391C664.681 118.697 662.909 117.73 661.844 116.49C661.034 115.543 660.653 114.479 660.702 113.297C660.789 111.295 661.639 109.801 663.25 108.814C664.53 108.033 666.078 107.687 667.894 107.774C670.081 107.872 671.829 108.624 673.138 110.03L671.717 111.349C670.77 110.323 669.466 109.772 667.806 109.693C666.38 109.635 665.199 109.889 664.261 110.455C663.236 111.09 662.694 112.066 662.635 113.385C662.557 115.182 664.237 116.564 667.674 117.53C670.155 118.224 671.927 119.195 672.992 120.445C673.802 121.402 674.183 122.477 674.134 123.668C674.056 125.24 673.343 126.568 671.996 127.652C670.706 128.688 669.149 129.205 667.323 129.205Z"/>
</mask>
<path d="M228.986 129.205C226.027 129.205 223.503 128.155 221.413 126.056C219.313 123.966 218.264 121.441 218.264 118.482C218.264 115.533 219.313 113.009 221.413 110.909C223.503 108.819 226.027 107.774 228.986 107.774C230.441 107.774 231.833 108.053 233.161 108.609L232.399 110.397C231.315 109.938 230.178 109.708 228.986 109.708C226.564 109.708 224.494 110.563 222.775 112.272C221.057 113.99 220.197 116.061 220.197 118.482C220.197 120.904 221.057 122.975 222.775 124.693C224.494 126.412 226.564 127.272 228.986 127.272C229.963 127.272 230.91 127.115 231.828 126.803V119.391H227.448V117.457H233.762V128.106L233.176 128.355C231.838 128.922 230.441 129.205 228.986 129.205Z" fill="#17CF95"/>
<path d="M248.268 117.56H253.893C254.947 117.56 255.851 117.189 256.603 116.446C257.345 115.694 257.716 114.791 257.716 113.736C257.716 112.682 257.345 111.778 256.603 111.026C255.851 110.274 254.947 109.898 253.893 109.898H248.268V117.56ZM255.387 119.303L260.411 129H258.243L253.307 119.493H248.268V128.985H246.334V107.965H253.893C255.485 107.965 256.842 108.531 257.965 109.664C259.088 110.787 259.65 112.145 259.65 113.736C259.65 115.055 259.244 116.236 258.434 117.281C257.643 118.297 256.627 118.971 255.387 119.303Z" fill="#17CF95"/>
<path d="M282.271 109.708C279.849 109.708 277.779 110.567 276.06 112.286C274.341 114.005 273.482 116.075 273.482 118.497C273.482 120.919 274.341 122.989 276.06 124.708C277.779 126.427 279.849 127.286 282.271 127.286C284.693 127.286 286.763 126.427 288.482 124.708C290.201 122.989 291.06 120.919 291.06 118.497C291.06 116.075 290.201 114.005 288.482 112.286C286.763 110.567 284.693 109.708 282.271 109.708ZM282.271 129.22C279.312 129.22 276.787 128.17 274.698 126.07C272.598 123.98 271.548 121.456 271.548 118.497C271.548 115.538 272.598 113.009 274.698 110.909C276.787 108.819 279.312 107.774 282.271 107.774C285.23 107.774 287.759 108.819 289.859 110.909C291.949 113.009 292.994 115.538 292.994 118.497C292.994 121.456 291.949 123.98 289.859 126.07C287.759 128.17 285.23 129.22 282.271 129.22Z" fill="#17CF95"/>
<path d="M332.504 107.965H334.79L321.489 129H318.911V111.583L307.895 129H305.317V107.965H307.251V126.422L318.911 107.965H320.844V126.422L332.504 107.965Z" fill="#17CF95"/>
<path d="M375.872 107.965H378.099L371.639 118.937V129H369.705V118.937L363.245 107.965H365.486L370.672 116.783L375.872 107.965Z" fill="#17CF95"/>
<path d="M398.127 109.708C395.705 109.708 393.635 110.567 391.916 112.286C390.197 114.005 389.338 116.075 389.338 118.497C389.338 120.919 390.197 122.989 391.916 124.708C393.635 126.427 395.705 127.286 398.127 127.286C400.549 127.286 402.619 126.427 404.338 124.708C406.057 122.989 406.916 120.919 406.916 118.497C406.916 116.075 406.057 114.005 404.338 112.286C402.619 110.567 400.549 109.708 398.127 109.708ZM398.127 129.22C395.168 129.22 392.644 128.17 390.554 126.07C388.454 123.98 387.404 121.456 387.404 118.497C387.404 115.538 388.454 113.009 390.554 110.909C392.644 108.819 395.168 107.774 398.127 107.774C401.086 107.774 403.615 108.819 405.715 110.909C407.805 113.009 408.85 115.538 408.85 118.497C408.85 121.456 407.805 123.98 405.715 126.07C403.615 128.17 401.086 129.22 398.127 129.22Z" fill="#17CF95"/>
<path d="M428.585 129.234C426.583 129.234 424.874 128.526 423.458 127.11C422.042 125.694 421.334 123.985 421.334 121.983V108.009H423.268V121.983C423.268 123.448 423.786 124.703 424.821 125.748C425.866 126.793 427.121 127.315 428.585 127.315C430.05 127.315 431.305 126.793 432.35 125.748C433.385 124.703 433.903 123.448 433.903 121.983V108.009H435.836V121.983C435.836 123.985 435.128 125.694 433.712 127.11C432.296 128.526 430.587 129.234 428.585 129.234Z" fill="#17CF95"/>
<path d="M450.928 117.56H456.553C457.608 117.56 458.511 117.189 459.263 116.446C460.005 115.694 460.377 114.791 460.377 113.736C460.377 112.682 460.005 111.778 459.263 111.026C458.511 110.274 457.608 109.898 456.553 109.898H450.928V117.56ZM458.047 119.303L463.072 129H460.904L455.967 119.493H450.928V128.985H448.995V107.965H456.553C458.145 107.965 459.503 108.531 460.626 109.664C461.749 110.787 462.31 112.145 462.31 113.736C462.31 115.055 461.905 116.236 461.094 117.281C460.303 118.297 459.288 118.971 458.047 119.303Z" fill="#17CF95"/>
<path d="M494.706 117.472H499.101C500.136 117.472 501.024 117.101 501.767 116.358C502.509 115.616 502.88 114.723 502.88 113.678C502.88 112.633 502.509 111.744 501.767 111.012C501.024 110.27 500.136 109.898 499.101 109.898H494.706V117.472ZM494.706 127.066H500.346C501.4 127.066 502.304 126.69 503.056 125.939C503.798 125.187 504.169 124.278 504.169 123.214C504.169 122.169 503.798 121.271 503.056 120.519C502.304 119.776 501.4 119.405 500.346 119.405H494.706V127.066ZM492.772 129V107.965H499.101C500.673 107.965 502.016 108.522 503.129 109.635C504.252 110.758 504.813 112.105 504.813 113.678C504.813 115.426 504.145 116.876 502.807 118.028C503.803 118.497 504.599 119.19 505.194 120.108C505.8 121.056 506.103 122.091 506.103 123.214C506.103 124.815 505.541 126.178 504.418 127.301C503.285 128.434 501.928 129 500.346 129H492.772Z" fill="#17CF95"/>
<path d="M525.867 129.234C523.865 129.234 522.156 128.526 520.74 127.11C519.324 125.694 518.616 123.985 518.616 121.983V108.009H520.55V121.983C520.55 123.448 521.068 124.703 522.103 125.748C523.148 126.793 524.403 127.315 525.867 127.315C527.332 127.315 528.587 126.793 529.632 125.748C530.667 124.703 531.185 123.448 531.185 121.983V108.009H533.118V121.983C533.118 123.985 532.41 125.694 530.994 127.11C529.578 128.526 527.869 129.234 525.867 129.234Z" fill="#17CF95"/>
<path d="M551.946 129.205C551.819 129.205 551.692 129.2 551.565 129.19C550.207 129.132 548.962 128.775 547.829 128.121C546.54 127.379 545.666 126.388 545.207 125.147L547.024 124.488C547.336 125.328 547.971 126.007 548.928 126.524C549.768 126.974 550.676 127.223 551.653 127.272C553.147 127.33 554.397 126.954 555.403 126.144C556.301 125.421 556.775 124.571 556.824 123.595C556.902 121.759 555.222 120.357 551.785 119.391C549.304 118.697 547.532 117.73 546.467 116.49C545.657 115.543 545.276 114.479 545.325 113.297C545.413 111.295 546.262 109.801 547.873 108.814C549.153 108.033 550.701 107.687 552.517 107.774C554.704 107.872 556.453 108.624 557.761 110.03L556.34 111.349C555.393 110.323 554.089 109.772 552.429 109.693C551.003 109.635 549.822 109.889 548.884 110.455C547.859 111.09 547.317 112.066 547.258 113.385C547.18 115.182 548.86 116.564 552.297 117.53C554.778 118.224 556.55 119.195 557.615 120.445C558.425 121.402 558.806 122.477 558.757 123.668C558.679 125.24 557.966 126.568 556.619 127.652C555.329 128.688 553.772 129.205 551.946 129.205Z" fill="#17CF95"/>
<path d="M570.597 129V107.862H572.546V129H570.597Z" fill="#17CF95"/>
<path d="M597.921 107.965H599.854V129H597.774L587.286 111.466V129H585.352V107.965H587.447L597.921 125.499V107.965Z" fill="#17CF95"/>
<path d="M613.262 107.965H623.999V109.898H615.195V117.486H622.153V119.42H615.195V127.066H623.999V129H613.262V107.965Z" fill="#17CF95"/>
<path d="M642.226 129.205C642.099 129.205 641.972 129.2 641.845 129.19C640.487 129.132 639.242 128.775 638.11 128.121C636.82 127.379 635.946 126.388 635.487 125.147L637.304 124.488C637.616 125.328 638.251 126.007 639.208 126.524C640.048 126.974 640.956 127.223 641.933 127.272C643.427 127.33 644.677 126.954 645.683 126.144C646.581 125.421 647.055 124.571 647.104 123.595C647.182 121.759 645.502 120.357 642.065 119.391C639.584 118.697 637.812 117.73 636.747 116.49C635.937 115.543 635.556 114.479 635.605 113.297C635.693 111.295 636.542 109.801 638.154 108.814C639.433 108.033 640.981 107.687 642.797 107.774C644.985 107.872 646.733 108.624 648.041 110.03L646.62 111.349C645.673 110.323 644.369 109.772 642.709 109.693C641.283 109.635 640.102 109.889 639.164 110.455C638.139 111.09 637.597 112.066 637.538 113.385C637.46 115.182 639.14 116.564 642.577 117.53C645.058 118.224 646.83 119.195 647.895 120.445C648.705 121.402 649.086 122.477 649.037 123.668C648.959 125.24 648.246 126.568 646.899 127.652C645.61 128.688 644.052 129.205 642.226 129.205Z" fill="#17CF95"/>
<path d="M667.323 129.205C667.196 129.205 667.069 129.2 666.942 129.19C665.584 129.132 664.339 128.775 663.206 128.121C661.917 127.379 661.043 126.388 660.584 125.147L662.401 124.488C662.713 125.328 663.348 126.007 664.305 126.524C665.145 126.974 666.053 127.223 667.03 127.272C668.524 127.33 669.774 126.954 670.78 126.144C671.678 125.421 672.152 124.571 672.201 123.595C672.279 121.759 670.599 120.357 667.162 119.391C664.681 118.697 662.909 117.73 661.844 116.49C661.034 115.543 660.653 114.479 660.702 113.297C660.789 111.295 661.639 109.801 663.25 108.814C664.53 108.033 666.078 107.687 667.894 107.774C670.081 107.872 671.829 108.624 673.138 110.03L671.717 111.349C670.77 110.323 669.466 109.772 667.806 109.693C666.38 109.635 665.199 109.889 664.261 110.455C663.236 111.09 662.694 112.066 662.635 113.385C662.557 115.182 664.237 116.564 667.674 117.53C670.155 118.224 671.927 119.195 672.992 120.445C673.802 121.402 674.183 122.477 674.134 123.668C674.056 125.24 673.343 126.568 671.996 127.652C670.706 128.688 669.149 129.205 667.323 129.205Z" fill="#17CF95"/>
<path d="M228.986 129.205C226.027 129.205 223.503 128.155 221.413 126.056C219.313 123.966 218.264 121.441 218.264 118.482C218.264 115.533 219.313 113.009 221.413 110.909C223.503 108.819 226.027 107.774 228.986 107.774C230.441 107.774 231.833 108.053 233.161 108.609L232.399 110.397C231.315 109.938 230.178 109.708 228.986 109.708C226.564 109.708 224.494 110.563 222.775 112.272C221.057 113.99 220.197 116.061 220.197 118.482C220.197 120.904 221.057 122.975 222.775 124.693C224.494 126.412 226.564 127.272 228.986 127.272C229.963 127.272 230.91 127.115 231.828 126.803V119.391H227.448V117.457H233.762V128.106L233.176 128.355C231.838 128.922 230.441 129.205 228.986 129.205Z" stroke="#17CF95" stroke-width="2" mask="url(#path-7-outside-1_41_386)"/>
<path d="M248.268 117.56H253.893C254.947 117.56 255.851 117.189 256.603 116.446C257.345 115.694 257.716 114.791 257.716 113.736C257.716 112.682 257.345 111.778 256.603 111.026C255.851 110.274 254.947 109.898 253.893 109.898H248.268V117.56ZM255.387 119.303L260.411 129H258.243L253.307 119.493H248.268V128.985H246.334V107.965H253.893C255.485 107.965 256.842 108.531 257.965 109.664C259.088 110.787 259.65 112.145 259.65 113.736C259.65 115.055 259.244 116.236 258.434 117.281C257.643 118.297 256.627 118.971 255.387 119.303Z" stroke="#17CF95" stroke-width="2" mask="url(#path-7-outside-1_41_386)"/>
<path d="M282.271 109.708C279.849 109.708 277.779 110.567 276.06 112.286C274.341 114.005 273.482 116.075 273.482 118.497C273.482 120.919 274.341 122.989 276.06 124.708C277.779 126.427 279.849 127.286 282.271 127.286C284.693 127.286 286.763 126.427 288.482 124.708C290.201 122.989 291.06 120.919 291.06 118.497C291.06 116.075 290.201 114.005 288.482 112.286C286.763 110.567 284.693 109.708 282.271 109.708ZM282.271 129.22C279.312 129.22 276.787 128.17 274.698 126.07C272.598 123.98 271.548 121.456 271.548 118.497C271.548 115.538 272.598 113.009 274.698 110.909C276.787 108.819 279.312 107.774 282.271 107.774C285.23 107.774 287.759 108.819 289.859 110.909C291.949 113.009 292.994 115.538 292.994 118.497C292.994 121.456 291.949 123.98 289.859 126.07C287.759 128.17 285.23 129.22 282.271 129.22Z" stroke="#17CF95" stroke-width="2" mask="url(#path-7-outside-1_41_386)"/>
<path d="M332.504 107.965H334.79L321.489 129H318.911V111.583L307.895 129H305.317V107.965H307.251V126.422L318.911 107.965H320.844V126.422L332.504 107.965Z" stroke="#17CF95" stroke-width="2" mask="url(#path-7-outside-1_41_386)"/>
<path d="M375.872 107.965H378.099L371.639 118.937V129H369.705V118.937L363.245 107.965H365.486L370.672 116.783L375.872 107.965Z" stroke="#17CF95" stroke-width="2" mask="url(#path-7-outside-1_41_386)"/>
<path d="M398.127 109.708C395.705 109.708 393.635 110.567 391.916 112.286C390.197 114.005 389.338 116.075 389.338 118.497C389.338 120.919 390.197 122.989 391.916 124.708C393.635 126.427 395.705 127.286 398.127 127.286C400.549 127.286 402.619 126.427 404.338 124.708C406.057 122.989 406.916 120.919 406.916 118.497C406.916 116.075 406.057 114.005 404.338 112.286C402.619 110.567 400.549 109.708 398.127 109.708ZM398.127 129.22C395.168 129.22 392.644 128.17 390.554 126.07C388.454 123.98 387.404 121.456 387.404 118.497C387.404 115.538 388.454 113.009 390.554 110.909C392.644 108.819 395.168 107.774 398.127 107.774C401.086 107.774 403.615 108.819 405.715 110.909C407.805 113.009 408.85 115.538 408.85 118.497C408.85 121.456 407.805 123.98 405.715 126.07C403.615 128.17 401.086 129.22 398.127 129.22Z" stroke="#17CF95" stroke-width="2" mask="url(#path-7-outside-1_41_386)"/>
<path d="M428.585 129.234C426.583 129.234 424.874 128.526 423.458 127.11C422.042 125.694 421.334 123.985 421.334 121.983V108.009H423.268V121.983C423.268 123.448 423.786 124.703 424.821 125.748C425.866 126.793 427.121 127.315 428.585 127.315C430.05 127.315 431.305 126.793 432.35 125.748C433.385 124.703 433.903 123.448 433.903 121.983V108.009H435.836V121.983C435.836 123.985 435.128 125.694 433.712 127.11C432.296 128.526 430.587 129.234 428.585 129.234Z" stroke="#17CF95" stroke-width="2" mask="url(#path-7-outside-1_41_386)"/>
<path d="M450.928 117.56H456.553C457.608 117.56 458.511 117.189 459.263 116.446C460.005 115.694 460.377 114.791 460.377 113.736C460.377 112.682 460.005 111.778 459.263 111.026C458.511 110.274 457.608 109.898 456.553 109.898H450.928V117.56ZM458.047 119.303L463.072 129H460.904L455.967 119.493H450.928V128.985H448.995V107.965H456.553C458.145 107.965 459.503 108.531 460.626 109.664C461.749 110.787 462.31 112.145 462.31 113.736C462.31 115.055 461.905 116.236 461.094 117.281C460.303 118.297 459.288 118.971 458.047 119.303Z" stroke="#17CF95" stroke-width="2" mask="url(#path-7-outside-1_41_386)"/>
<path d="M494.706 117.472H499.101C500.136 117.472 501.024 117.101 501.767 116.358C502.509 115.616 502.88 114.723 502.88 113.678C502.88 112.633 502.509 111.744 501.767 111.012C501.024 110.27 500.136 109.898 499.101 109.898H494.706V117.472ZM494.706 127.066H500.346C501.4 127.066 502.304 126.69 503.056 125.939C503.798 125.187 504.169 124.278 504.169 123.214C504.169 122.169 503.798 121.271 503.056 120.519C502.304 119.776 501.4 119.405 500.346 119.405H494.706V127.066ZM492.772 129V107.965H499.101C500.673 107.965 502.016 108.522 503.129 109.635C504.252 110.758 504.813 112.105 504.813 113.678C504.813 115.426 504.145 116.876 502.807 118.028C503.803 118.497 504.599 119.19 505.194 120.108C505.8 121.056 506.103 122.091 506.103 123.214C506.103 124.815 505.541 126.178 504.418 127.301C503.285 128.434 501.928 129 500.346 129H492.772Z" stroke="#17CF95" stroke-width="2" mask="url(#path-7-outside-1_41_386)"/>
<path d="M525.867 129.234C523.865 129.234 522.156 128.526 520.74 127.11C519.324 125.694 518.616 123.985 518.616 121.983V108.009H520.55V121.983C520.55 123.448 521.068 124.703 522.103 125.748C523.148 126.793 524.403 127.315 525.867 127.315C527.332 127.315 528.587 126.793 529.632 125.748C530.667 124.703 531.185 123.448 531.185 121.983V108.009H533.118V121.983C533.118 123.985 532.41 125.694 530.994 127.11C529.578 128.526 527.869 129.234 525.867 129.234Z" stroke="#17CF95" stroke-width="2" mask="url(#path-7-outside-1_41_386)"/>
<path d="M551.946 129.205C551.819 129.205 551.692 129.2 551.565 129.19C550.207 129.132 548.962 128.775 547.829 128.121C546.54 127.379 545.666 126.388 545.207 125.147L547.024 124.488C547.336 125.328 547.971 126.007 548.928 126.524C549.768 126.974 550.676 127.223 551.653 127.272C553.147 127.33 554.397 126.954 555.403 126.144C556.301 125.421 556.775 124.571 556.824 123.595C556.902 121.759 555.222 120.357 551.785 119.391C549.304 118.697 547.532 117.73 546.467 116.49C545.657 115.543 545.276 114.479 545.325 113.297C545.413 111.295 546.262 109.801 547.873 108.814C549.153 108.033 550.701 107.687 552.517 107.774C554.704 107.872 556.453 108.624 557.761 110.03L556.34 111.349C555.393 110.323 554.089 109.772 552.429 109.693C551.003 109.635 549.822 109.889 548.884 110.455C547.859 111.09 547.317 112.066 547.258 113.385C547.18 115.182 548.86 116.564 552.297 117.53C554.778 118.224 556.55 119.195 557.615 120.445C558.425 121.402 558.806 122.477 558.757 123.668C558.679 125.24 557.966 126.568 556.619 127.652C555.329 128.688 553.772 129.205 551.946 129.205Z" stroke="#17CF95" stroke-width="2" mask="url(#path-7-outside-1_41_386)"/>
<path d="M570.597 129V107.862H572.546V129H570.597Z" stroke="#17CF95" stroke-width="2" mask="url(#path-7-outside-1_41_386)"/>
<path d="M597.921 107.965H599.854V129H597.774L587.286 111.466V129H585.352V107.965H587.447L597.921 125.499V107.965Z" stroke="#17CF95" stroke-width="2" mask="url(#path-7-outside-1_41_386)"/>
<path d="M613.262 107.965H623.999V109.898H615.195V117.486H622.153V119.42H615.195V127.066H623.999V129H613.262V107.965Z" stroke="#17CF95" stroke-width="2" mask="url(#path-7-outside-1_41_386)"/>
<path d="M642.226 129.205C642.099 129.205 641.972 129.2 641.845 129.19C640.487 129.132 639.242 128.775 638.11 128.121C636.82 127.379 635.946 126.388 635.487 125.147L637.304 124.488C637.616 125.328 638.251 126.007 639.208 126.524C640.048 126.974 640.956 127.223 641.933 127.272C643.427 127.33 644.677 126.954 645.683 126.144C646.581 125.421 647.055 124.571 647.104 123.595C647.182 121.759 645.502 120.357 642.065 119.391C639.584 118.697 637.812 117.73 636.747 116.49C635.937 115.543 635.556 114.479 635.605 113.297C635.693 111.295 636.542 109.801 638.154 108.814C639.433 108.033 640.981 107.687 642.797 107.774C644.985 107.872 646.733 108.624 648.041 110.03L646.62 111.349C645.673 110.323 644.369 109.772 642.709 109.693C641.283 109.635 640.102 109.889 639.164 110.455C638.139 111.09 637.597 112.066 637.538 113.385C637.46 115.182 639.14 116.564 642.577 117.53C645.058 118.224 646.83 119.195 647.895 120.445C648.705 121.402 649.086 122.477 649.037 123.668C648.959 125.24 648.246 126.568 646.899 127.652C645.61 128.688 644.052 129.205 642.226 129.205Z" stroke="#17CF95" stroke-width="2" mask="url(#path-7-outside-1_41_386)"/>
<path d="M667.323 129.205C667.196 129.205 667.069 129.2 666.942 129.19C665.584 129.132 664.339 128.775 663.206 128.121C661.917 127.379 661.043 126.388 660.584 125.147L662.401 124.488C662.713 125.328 663.348 126.007 664.305 126.524C665.145 126.974 666.053 127.223 667.03 127.272C668.524 127.33 669.774 126.954 670.78 126.144C671.678 125.421 672.152 124.571 672.201 123.595C672.279 121.759 670.599 120.357 667.162 119.391C664.681 118.697 662.909 117.73 661.844 116.49C661.034 115.543 660.653 114.479 660.702 113.297C660.789 111.295 661.639 109.801 663.25 108.814C664.53 108.033 666.078 107.687 667.894 107.774C670.081 107.872 671.829 108.624 673.138 110.03L671.717 111.349C670.77 110.323 669.466 109.772 667.806 109.693C666.38 109.635 665.199 109.889 664.261 110.455C663.236 111.09 662.694 112.066 662.635 113.385C662.557 115.182 664.237 116.564 667.674 117.53C670.155 118.224 671.927 119.195 672.992 120.445C673.802 121.402 674.183 122.477 674.134 123.668C674.056 125.24 673.343 126.568 671.996 127.652C670.706 128.688 669.149 129.205 667.323 129.205Z" stroke="#17CF95" stroke-width="2" mask="url(#path-7-outside-1_41_386)"/>
</svg>
