<?xml version="1.0" encoding="utf-8"?>
<!-- Generator: Adobe Illustrator 16.0.0, SVG Export Plug-In . SVG Version: 6.00 Build 0)  -->
<!DOCTYPE svg PUBLIC "-//W3C//DTD SVG 1.1//EN" "http://www.w3.org/Graphics/SVG/1.1/DTD/svg11.dtd">
<svg version="1.1" id="Layer_1" xmlns="http://www.w3.org/2000/svg" xmlns:xlink="http://www.w3.org/1999/xlink" x="0px" y="0px"
	 width="23.842px" height="23.846px" viewBox="0 0 23.842 23.846" enable-background="new 0 0 23.842 23.846" xml:space="preserve">
<g>
	<path fill="#FFFFFF" d="M-0.001,23.817c0.194-0.562,0.39-1.122,0.581-1.685c0.465-1.369,0.928-2.74,1.395-4.11
		c0.034-0.098,0.027-0.172-0.028-0.261c-0.794-1.299-1.309-2.701-1.553-4.202c-0.145-0.885-0.197-1.778-0.121-2.675
		c0.269-3.192,1.604-5.857,4.01-7.975c1.613-1.421,3.493-2.308,5.601-2.71c0.928-0.178,1.866-0.232,2.809-0.182
		c4.803,0.268,8.912,3.364,10.504,7.827c0.324,0.916,0.537,1.856,0.609,2.829c0.286,3.975-1.084,7.277-4.068,9.9
		c-1.553,1.365-3.373,2.216-5.404,2.615c-1.13,0.226-2.27,0.277-3.413,0.168c-1.604-0.151-3.12-0.61-4.535-1.386
		c-0.12-0.065-0.221-0.072-0.35-0.031c-1.953,0.626-3.907,1.246-5.862,1.866C0.117,23.827,0.058,23.832,0,23.845
		C-0.001,23.836-0.001,23.826-0.001,23.817z M1.992,21.913c0.056-0.018,0.079-0.021,0.102-0.027
		c1.379-0.438,2.758-0.874,4.136-1.316c0.114-0.035,0.199-0.023,0.303,0.039c1.455,0.896,3.039,1.398,4.74,1.53
		c0.885,0.067,1.767,0.019,2.642-0.141c1.977-0.354,3.719-1.193,5.202-2.543c2.032-1.849,3.19-4.146,3.437-6.895
		c0.086-0.972,0.031-1.938-0.162-2.894c-0.373-1.823-1.168-3.441-2.408-4.832c-1.84-2.063-4.144-3.235-6.885-3.529
		c-1.063-0.114-2.125-0.057-3.175,0.166C7.404,2.004,5.328,3.27,3.746,5.294c-1.842,2.354-2.534,5.041-2.104,8.004
		c0.225,1.554,0.805,2.972,1.689,4.264c0.066,0.098,0.081,0.178,0.043,0.287c-0.288,0.834-0.57,1.669-0.854,2.506
		C2.345,20.865,2.174,21.374,1.992,21.913z"/>
	<path fill="#FFFFFF" d="M6.46,9.019c-0.003-0.896,0.354-1.627,0.988-2.24c0.16-0.154,0.349-0.236,0.577-0.227
		c0.204,0.01,0.409-0.006,0.61,0.02c0.074,0.012,0.167,0.095,0.199,0.166C8.995,7.09,9.138,7.449,9.289,7.805
		c0.177,0.421,0.353,0.842,0.535,1.259C9.869,9.17,9.88,9.271,9.813,9.362c-0.212,0.286-0.412,0.584-0.65,0.849
		c-0.349,0.387-0.395,0.652-0.126,1.097c0.956,1.576,2.254,2.765,3.968,3.479c0.11,0.045,0.217,0.101,0.328,0.143
		c0.333,0.123,0.632,0.063,0.863-0.208c0.326-0.382,0.645-0.771,0.953-1.166c0.08-0.102,0.147-0.128,0.263-0.075
		c0.61,0.287,1.223,0.571,1.834,0.854c0.185,0.087,0.369,0.173,0.549,0.268c0.042,0.021,0.088,0.083,0.088,0.126
		c-0.003,0.745-0.219,1.371-0.896,1.801c-0.504,0.318-1.045,0.51-1.622,0.519c-0.388,0.008-0.786-0.104-1.162-0.219
		c-0.919-0.283-1.833-0.589-2.672-1.074c-1.195-0.69-2.202-1.605-3.048-2.688c-0.508-0.647-0.973-1.332-1.418-2.024
		c-0.306-0.48-0.492-1.021-0.572-1.588C6.475,9.308,6.471,9.161,6.46,9.019z"/>
</g>
</svg>
