<svg width="39" height="39" viewBox="0 0 39 39" fill="none" xmlns="http://www.w3.org/2000/svg">
<path fill-rule="evenodd" clip-rule="evenodd" d="M25.2144 21.5711C24.5678 21.5711 23.3233 23.9602 22.576 23.9602C22.3813 23.9521 22.1923 23.8927 22.0285 23.7883C20.6346 23.0973 19.4144 22.3841 18.2691 21.3013C17.3218 20.4144 16.2772 19.0841 15.7315 17.9273C15.6562 17.8178 15.6123 17.6901 15.6046 17.5578C15.6046 16.9906 17.3253 15.9336 17.3253 14.9969C17.3253 14.7511 16.0565 11.4047 15.8792 10.9836C15.6307 10.3442 15.5073 10.1466 14.8364 10.1466C14.5114 10.1466 14.2107 10.0727 13.9152 10.0727C13.3903 10.0727 12.994 10.2703 12.6186 10.6141C11.4228 11.7227 10.8249 12.8794 10.7763 14.5053V14.7013C10.7502 16.4028 11.5966 18.0992 12.5439 19.4794C14.6817 22.6075 16.8995 25.3403 20.459 26.9387C21.5297 27.432 23.996 28.465 25.19 28.465C26.61 28.465 28.9269 27.5798 29.4969 26.1997C29.7229 25.6325 29.921 24.945 29.921 24.3297C29.921 24.23 29.921 24.0822 29.8689 23.9602C29.6951 23.6645 25.6384 21.5711 25.2144 21.5711ZM20.1601 34.6216C17.1237 34.6216 14.1116 33.7106 11.5706 32.0606L5.54471 33.9547L7.5122 28.2192C5.57127 25.5877 4.52458 22.4151 4.52273 19.158C4.52273 10.6416 11.5445 3.69781 20.1601 3.69781C28.7756 3.69781 35.7992 10.6398 35.7992 19.1562C35.7992 27.6778 28.7774 34.6216 20.1601 34.6216ZM20.1601 0.59375C9.80123 0.59375 1.38901 8.91594 1.38901 19.1562C1.38901 22.5319 2.31018 25.8559 4.07605 28.7366L0.690308 38.7088L11.0735 35.4088C13.9325 36.9695 17.1536 37.7662 20.419 37.7202C23.6843 37.6742 26.8812 36.7871 29.694 35.1464C32.5069 33.5057 34.8386 31.1682 36.4591 28.3644C38.0795 25.5606 38.9328 22.3874 38.9346 19.158C38.9346 8.91765 30.5189 0.59375 20.1601 0.59375Z" fill="#222224"/>
</svg>
